<?xml version="1.0" standalone="no"?>
<!DOCTYPE svg PUBLIC "-//W3C//DTD SVG 1.1//EN" "http://www.w3.org/Graphics/SVG/1.1/DTD/svg11.dtd"><svg xmlns="http://www.w3.org/2000/svg" style="background-color:#FFF" width="1371" height="1352"><path stroke="black" fill="none" stroke-width="1" d="M1662, 1099.84L1549.72, 1073.99L1547.55, 1073.38L1545.46, 1072.56L1543.46, 1071.54L1541.58, 1070.34L1539.83, 1068.97L1538.21, 1067.42L1536.74, 1065.72L1535.44, 1063.87L1286.32, 669.94L1284.66, 666.8L1283.51, 663.46L1282.88, 659.98L1282.79, 656.43L1298.72, 356"/><path stroke="black" fill="none" stroke-width="1" d="M1662, 1114.7L1506.29, 1070.43L1504.14, 1069.7L1502.09, 1068.78L1500.15, 1067.66L1498.33, 1066.36L1496.65, 1064.89L1495.11, 1063.27L1493.73, 1061.49L1492.53, 1059.57L1266.26, 656.98L1264.76, 653.75L1263.79, 650.34L1263.34, 646.83L1263.45, 643.26L1294.21, 356"/><path stroke="black" fill="none" stroke-width="1" d="M1662, 1133.19L1463.56, 1065.72L1461.45, 1064.88L1459.45, 1063.85L1457.57, 1062.64L1455.82, 1061.25L1454.21, 1059.7L1452.75, 1057.99L1451.47, 1056.14L1450.36, 1054.16L1247.18, 644.22L1245.85, 640.9L1245.05, 637.44L1244.79, 633.89L1245.08, 630.33L1289.47, 356"/><path stroke="black" fill="none" stroke-width="1" d="M1662, 1155.52L1421.61, 1059.93L1419.55, 1058.99L1417.6, 1057.85L1415.78, 1056.54L1414.09, 1055.06L1412.56, 1053.43L1411.2, 1051.64L1410, 1049.73L1409, 1047.69L1229.05, 631.69L1227.89, 628.3L1227.27, 624.79L1227.2, 621.23L1227.68, 617.67L1284.6, 356"/><path stroke="black" fill="none" stroke-width="1" d="M1662, 1181.93L1380.49, 1053.09L1378.47, 1052.04L1376.58, 1050.81L1374.82, 1049.41L1373.21, 1047.84L1371.77, 1046.13L1370.49, 1044.28L1369.4, 1042.3L1368.5, 1040.21L1211.85, 619.46L1210.86, 616L1210.42, 612.45L1210.54, 608.88L1211.22, 605.34L1279.68, 356"/><path stroke="black" fill="none" stroke-width="1" d="M1645.75, 1185.93L1642.92, 1188.38L1639.8, 1190.3L1636.45, 1191.68L1632.95, 1192.52L1629.35, 1192.81L1625.74, 1192.52L1622.18, 1191.66L1618.73, 1190.21L1340.23, 1045.28L1338.26, 1044.13L1336.43, 1042.8L1334.75, 1041.3L1333.23, 1039.65L1331.87, 1037.86L1330.69, 1035.94L1329.7, 1033.91L1328.91, 1031.77L1195.56, 607.56L1194.75, 604.05L1194.5, 600.47L1194.81, 596.89L1195.68, 593.39L1274.81, 356M1645.75, 1185.93L1662, 1169.4"/><path stroke="black" fill="none" stroke-width="1" d="M1596.84, 1191.35L1593.89, 1193.63L1590.68, 1195.38L1587.27, 1196.58L1583.74, 1197.24L1580.14, 1197.33L1576.56, 1196.86L1573.06, 1195.82L1569.7, 1194.2L1300.91, 1036.53L1299, 1035.28L1297.24, 1033.86L1295.63, 1032.28L1294.18, 1030.55L1292.92, 1028.69L1291.84, 1026.71L1290.95, 1024.63L1290.27, 1022.45L1180.15, 596.04L1179.52, 592.48L1179.46, 588.88L1179.96, 585.32L1181.02, 581.86L1270.08, 356M1596.84, 1191.35L1662, 1131.86"/><path stroke="black" fill="none" stroke-width="1" d="M1548.26, 1195.28L1545.2, 1197.4L1541.91, 1198.97L1538.45, 1199.99L1534.9, 1200.45L1531.31, 1200.36L1527.77, 1199.71L1524.33, 1198.49L1521.07, 1196.71L1262.54, 1026.92L1260.69, 1025.57L1259, 1024.06L1257.48, 1022.4L1256.12, 1020.59L1254.95, 1018.67L1253.97, 1016.63L1253.2, 1014.5L1252.63, 1012.29L1165.6, 584.95L1165.16, 581.35L1165.29, 577.74L1165.98, 574.2L1167.23, 570.79L1265.59, 356M1548.26, 1195.28L1662, 1102.2"/><path stroke="black" fill="none" stroke-width="1" d="M1500.08, 1197.77L1496.92, 1199.71L1493.56, 1201.1L1490.07, 1201.93L1486.5, 1202.21L1482.93, 1201.93L1479.44, 1201.1L1476.08, 1199.71L1472.92, 1197.77L1225.19, 1016.5L1223.41, 1015.06L1221.8, 1013.45L1220.36, 1011.71L1219.09, 1009.84L1218.02, 1007.85L1217.14, 1005.77L1216.48, 1003.59L1216.02, 1001.35L1151.88, 574.32L1151.63, 570.69L1151.95, 567.08L1152.83, 563.57L1154.26, 560.22L1261.44, 356M1500.08, 1197.77L1662, 1079.29"/><path stroke="black" fill="none" stroke-width="1" d="M1452.38, 1198.85L1449.13, 1200.61L1445.71, 1201.81L1442.19, 1202.46L1438.62, 1202.55L1435.09, 1202.08L1431.64, 1201.08L1428.37, 1199.52L1425.32, 1197.43L1188.88, 1005.33L1187.17, 1003.8L1185.64, 1002.12L1184.29, 1000.3L1183.12, 998.36L1182.15, 996.32L1181.38, 994.19L1180.83, 991.98L1180.49, 989.71L1138.96, 564.2L1138.89, 560.55L1139.4, 556.95L1140.47, 553.48L1142.09, 550.2L1257.77, 356M1452.38, 1198.85L1662, 1062.25"/><path stroke="black" fill="none" stroke-width="1" d="M1405.24, 1198.55L1401.91, 1200.13L1398.44, 1201.15L1394.89, 1201.6L1391.34, 1201.51L1387.84, 1200.86L1384.46, 1199.68L1381.28, 1197.97L1378.35, 1195.73L1153.64, 993.48L1152.01, 991.86L1150.56, 990.1L1149.3, 988.21L1148.23, 986.22L1147.37, 984.12L1146.71, 981.95L1146.27, 979.72L1146.05, 977.43L1126.8, 554.62L1126.93, 550.96L1127.63, 547.38L1128.89, 543.96L1130.68, 540.76L1254.7, 356M1405.24, 1198.55L1662, 1050.38"/><path stroke="black" fill="none" stroke-width="1" d="M1358.71, 1196.93L1355.31, 1198.33L1351.8, 1199.15L1348.25, 1199.42L1344.71, 1199.13L1341.26, 1198.31L1337.96, 1196.96L1334.88, 1195.09L1332.08, 1192.71L1119.51, 981.01L1117.96, 979.31L1116.6, 977.47L1115.44, 975.52L1114.47, 973.47L1113.71, 971.33L1113.17, 969.13L1112.84, 966.87L1112.74, 964.57L1115.38, 545.62L1115.7, 541.95L1116.59, 538.41L1118.03, 535.05L1120, 531.94L1252.4, 356M1358.71, 1196.93L1626.3, 1061.28L1628.3, 1060.14L1630.16, 1058.81L1631.87, 1057.32L1633.42, 1055.66L1634.8, 1053.87L1636, 1051.94L1637.01, 1049.89L1637.82, 1047.73L1662, 971.69"/><path stroke="black" fill="none" stroke-width="1" d="M1312.87, 1194.03L1309.41, 1195.24L1305.88, 1195.87L1302.32, 1195.95L1298.82, 1195.48L1295.43, 1194.48L1292.21, 1192.97L1289.24, 1190.95L1286.57, 1188.44L1086.51, 967.99L1085.05, 966.21L1083.78, 964.31L1082.71, 962.29L1081.85, 960.19L1081.2, 958.02L1080.77, 955.78L1080.56, 953.5L1080.58, 951.2L1104.65, 537.23L1105.16, 533.57L1106.23, 530.07L1107.86, 526.78L1110, 523.77L1251.05, 356M1312.87, 1194.03L1585.3, 1074.01L1587.36, 1072.98L1589.29, 1071.75L1591.08, 1070.35L1592.72, 1068.78L1594.2, 1067.05L1595.5, 1065.19L1596.62, 1063.19L1597.54, 1061.08L1662, 890.25M1662, 371.91L1657.42, 356"/><path stroke="black" fill="none" stroke-width="1" d="M1267.78, 1189.9L1264.27, 1190.91L1260.72, 1191.36L1257.18, 1191.25L1253.71, 1190.6L1250.39, 1189.43L1247.27, 1187.75L1244.41, 1185.59L1241.88, 1182.96L1054.66, 954.49L1053.29, 952.63L1052.12, 950.66L1051.15, 948.6L1050.4, 946.45L1049.86, 944.24L1049.54, 941.98L1049.45, 939.7L1049.59, 937.39L1094.57, 529.49L1095.27, 525.85L1096.54, 522.39L1098.34, 519.18L1100.65, 516.28L1250.91, 356M1267.78, 1189.9L1544.15, 1085.65L1546.27, 1084.73L1548.26, 1083.61L1550.13, 1082.3L1551.86, 1080.81L1553.43, 1079.17L1554.83, 1077.37L1556.06, 1075.43L1557.09, 1073.37L1662, 834.47M1662, 420.26L1646.99, 356"/><path stroke="black" fill="none" stroke-width="1" d="M1223.51, 1184.59L1219.97, 1185.41L1216.4, 1185.67L1212.88, 1185.37L1209.46, 1184.54L1206.21, 1183.2L1203.19, 1181.38L1200.46, 1179.08L1198.07, 1176.33L1023.98, 940.57L1022.7, 938.65L1021.63, 936.62L1020.77, 934.5L1020.13, 932.32L1019.71, 930.08L1019.51, 927.8L1019.53, 925.51L1019.79, 923.21L1085.12, 522.42L1086.01, 518.81L1087.46, 515.41L1089.44, 512.28L1091.91, 509.5L1252.25, 356M1223.51, 1184.59L1502.92, 1096.19L1505.08, 1095.38L1507.14, 1094.37L1509.08, 1093.16L1510.89, 1091.77L1512.55, 1090.21L1514.05, 1088.49L1515.38, 1086.62L1516.52, 1084.61L1662, 795.87M1662, 489.95L1637.78, 356"/><path stroke="black" fill="none" stroke-width="1" d="M1180.1, 1178.17L1176.53, 1178.79L1172.97, 1178.85L1169.48, 1178.37L1166.12, 1177.37L1162.95, 1175.87L1160.03, 1173.89L1157.43, 1171.47L1155.19, 1168.61L994.49, 926.31L993.31, 924.32L992.34, 922.23L991.59, 920.07L991.05, 917.85L990.74, 915.59L990.66, 913.31L990.8, 911.01L991.18, 908.73L1076.24, 516.04L1077.32, 512.47L1078.96, 509.14L1081.11, 506.12L1083.73, 503.46L1255.45, 356M1180.1, 1178.17L1461.65, 1105.64L1463.86, 1104.95L1465.98, 1104.05L1467.98, 1102.95L1469.86, 1101.65L1471.61, 1100.18L1473.2, 1098.54L1474.63, 1096.74L1475.88, 1094.79L1662, 769.5M1662, 605.5L1632.8, 379.03L1632.19, 375.95L1631.18, 373.02L1629.8, 370.28L1628.07, 367.75L1626.03, 365.48L1623.69, 363.49L1621.08, 361.82L1618.23, 360.5L1606.51, 356"/><path stroke="black" fill="none" stroke-width="1" d="M1137.61, 1170.69L1134.02, 1171.12L1130.47, 1170.99L1127.02, 1170.32L1123.73, 1169.15L1120.66, 1167.49L1117.85, 1165.37L1115.38, 1162.83L1113.3, 1159.87L966.18, 911.77L965.1, 909.72L964.24, 907.58L963.6, 905.38L963.18, 903.14L962.98, 900.86L963.01, 898.57L963.28, 896.28L963.77, 894.01L1067.9, 510.39L1069.17, 506.87L1070.99, 503.62L1073.3, 500.7L1076.08, 498.18L1261.02, 356M1137.61, 1170.69L1420.42, 1114.01L1422.67, 1113.44L1424.83, 1112.65L1426.9, 1111.66L1428.85, 1110.47L1430.67, 1109.09L1432.35, 1107.53L1433.88, 1105.81L1435.23, 1103.92L1650.64, 769.85L1652.41, 766.54L1653.61, 763.02L1654.23, 759.35L1654.24, 755.6L1626.94, 404.59L1626.49, 401.49L1625.63, 398.52L1624.39, 395.71L1622.8, 393.11L1620.88, 390.73L1618.65, 388.63L1616.14, 386.83L1613.37, 385.36L1547.43, 356"/><path stroke="black" fill="none" stroke-width="1" d="M1096.08, 1162.21L1092.49, 1162.44L1088.96, 1162.13L1085.57, 1161.28L1082.35, 1159.94L1079.38, 1158.13L1076.7, 1155.87L1074.37, 1153.21L1072.45, 1150.16L939.08, 897.02L938.1, 894.91L937.34, 892.73L936.81, 890.5L936.51, 888.23L936.43, 885.94L936.58, 883.65L936.96, 881.38L937.57, 879.14L1060.05, 505.49L1061.51, 502.02L1063.5, 498.86L1065.97, 496.06L1068.89, 493.69L1269.6, 356M1096.08, 1162.21L1379.27, 1121.31L1381.55, 1120.86L1383.76, 1120.19L1385.88, 1119.31L1387.89, 1118.23L1389.79, 1116.94L1391.56, 1115.48L1393.18, 1113.83L1394.63, 1112.02L1624.92, 793.31L1626.87, 790.09L1628.26, 786.62L1629.07, 782.97L1629.27, 779.22L1619.85, 430.77L1619.55, 427.66L1618.85, 424.65L1617.76, 421.79L1616.3, 419.11L1614.51, 416.65L1612.39, 414.44L1609.98, 412.51L1607.3, 410.9L1499.55, 356"/><path stroke="black" fill="none" stroke-width="1" d="M1055.57, 1152.8L1051.98, 1152.84L1048.49, 1152.33L1045.15, 1151.31L1042.03, 1149.81L1039.16, 1147.85L1036.61, 1145.47L1034.43, 1142.7L1032.67, 1139.57L913.17, 882.13L912.3, 879.97L911.65, 877.76L911.23, 875.49L911.04, 873.21L911.08, 870.92L911.35, 868.63L911.85, 866.38L912.57, 864.16L1052.65, 501.35L1054.3, 497.96L1056.46, 494.89L1059.09, 492.22L1062.14, 489.99L1282.12, 356M1055.57, 1152.8L1338.27, 1127.57L1340.58, 1127.24L1342.82, 1126.69L1344.99, 1125.92L1347.06, 1124.95L1349.03, 1123.77L1350.87, 1122.39L1352.58, 1120.83L1354.13, 1119.1L1598.29, 816.38L1600.41, 813.25L1601.98, 809.85L1602.98, 806.23L1603.38, 802.48L1611.49, 457.5L1611.35, 454.38L1610.8, 451.35L1609.86, 448.44L1608.55, 445.7L1606.89, 443.15L1604.9, 440.83L1602.59, 438.79L1600, 437.04L1459.63, 356"/><path stroke="black" fill="none" stroke-width="1" d="M1016.12, 1142.52L1297.47, 1132.78L1299.79, 1132.58L1302.06, 1132.16L1304.27, 1131.51L1306.4, 1130.64L1308.43, 1129.57L1310.35, 1128.29L1312.14, 1126.82L1313.78, 1125.17L1570.78, 839.01L1573.07, 835.99L1574.83, 832.66L1576.01, 829.09L1576.6, 825.34L1601.86, 484.71L1601.88, 481.59L1601.49, 478.54L1600.7, 475.59L1599.53, 472.79L1598, 470.16L1596.13, 467.75L1593.94, 465.59L1591.45, 463.72L1425.58, 356M1016.12, 1142.52L1012.55, 1142.37L1009.1, 1141.68L1005.83, 1140.48L1002.8, 1138.82L1000.05, 1136.73L997.63, 1134.23L995.59, 1131.36L994, 1128.16L888.46, 867.17L887.69, 864.97L887.16, 862.72L886.86, 860.43L886.78, 858.14L886.94, 855.84L887.32, 853.57L887.94, 851.34L888.78, 849.17L1045.66, 498L1047.49, 494.68L1049.82, 491.72L1052.6, 489.18L1055.78, 487.12L1299.91, 356"/><path stroke="black" fill="none" stroke-width="1" d="M1396.03, 356L1581.63, 490.85L1584.02, 492.84L1586.09, 495.11L1587.83, 497.61L1589.21, 500.31L1590.23, 503.16L1590.87, 506.14L1591.11, 509.2L1590.93, 512.31L1548.96, 847.77L1548.18, 851.49L1546.8, 855.01L1544.87, 858.26L1542.41, 861.17L1273.64, 1130.25L1271.91, 1131.82L1270.04, 1133.19L1268.05, 1134.36L1265.96, 1135.33L1263.79, 1136.08L1261.54, 1136.61L1259.24, 1136.92L1256.91, 1136.99L977.75, 1131.44M977.75, 1131.44L974.2, 1131.09L970.81, 1130.22L967.62, 1128.87L964.69, 1127.05L962.06, 1124.82L959.78, 1122.21L957.9, 1119.26L956.48, 1115.99L864.93, 852.21L864.28, 849.96L863.86, 847.68L863.68, 845.38L863.72, 843.08L863.99, 840.8L864.49, 838.54L865.22, 836.34L866.18, 834.21L1039.04, 495.44L1041.04, 492.21L1043.54, 489.36L1046.46, 486.97L1049.76, 485.07L1324.9, 356"/><path stroke="black" fill="none" stroke-width="1" d="M940.51, 1119.64L936.99, 1119.1L933.66, 1118.05L930.56, 1116.53L927.74, 1114.57L925.24, 1112.22L923.11, 1109.5L921.39, 1106.46L920.13, 1103.14L842.59, 837.3L842.05, 835.03L841.75, 832.72L841.68, 830.41L841.84, 828.11L842.23, 825.84L842.85, 823.61L843.69, 821.45L844.75, 819.36L1032.73, 493.69L1034.91, 490.56L1037.55, 487.84L1040.61, 485.59L1044.02, 483.87L1354.19, 358.42L1357.14, 357.45L1360.16, 356.9L1363.19, 356.74L1366.21, 356.99L1369.17, 357.64L1372.03, 358.67L1374.75, 360.08L1377.29, 361.87L1570.53, 518.35L1572.81, 520.46L1574.75, 522.83L1576.36, 525.41L1577.6, 528.17L1578.47, 531.07L1578.96, 534.07L1579.04, 537.14L1578.71, 540.23L1520.49, 869.7L1519.51, 873.4L1517.95, 876.85L1515.84, 880.01L1513.22, 882.79L1233.75, 1134.37L1231.93, 1135.85L1229.99, 1137.12L1227.94, 1138.19L1225.8, 1139.04L1223.58, 1139.68L1221.31, 1140.09L1218.99, 1140.27L1216.65, 1140.21L940.51, 1119.64"/><path stroke="black" fill="none" stroke-width="1" d="M904.41, 1107.17L900.95, 1106.45L897.69, 1105.23L894.69, 1103.55L891.98, 1101.45L889.61, 1098.98L887.63, 1096.17L886.07, 1093.06L884.99, 1089.69L821.42, 822.53L820.99, 820.22L820.81, 817.9L820.85, 815.59L821.13, 813.3L821.64, 811.04L822.37, 808.85L823.32, 806.72L824.49, 804.69L1026.69, 492.77L1029.04, 489.73L1031.84, 487.14L1035.03, 485.06L1038.54, 483.52L1351.75, 376.23L1354.75, 375.42L1357.78, 375.03L1360.81, 375.04L1363.81, 375.45L1366.73, 376.25L1369.52, 377.43L1372.16, 378.98L1374.6, 380.89L1558.14, 546.16L1560.3, 548.38L1562.12, 550.84L1563.59, 553.5L1564.68, 556.32L1565.4, 559.25L1565.73, 562.27L1565.66, 565.33L1565.17, 568.39L1491.21, 891.1L1490.05, 894.76L1488.3, 898.15L1486.02, 901.2L1483.25, 903.85L1194.17, 1137.55L1192.27, 1138.93L1190.26, 1140.1L1188.15, 1141.06L1185.96, 1141.8L1183.71, 1142.31L1181.41, 1142.6L1179.09, 1142.65L1176.75, 1142.47L904.41, 1107.17"/><path stroke="black" fill="none" stroke-width="1" d="M869.49, 1094.12L866.09, 1093.21L862.91, 1091.82L860.01, 1090L857.43, 1087.77L855.2, 1085.18L853.37, 1082.28L851.98, 1079.11L851.08, 1075.7L801.39, 807.95L801.08, 805.62L801.01, 803.29L801.18, 800.97L801.57, 798.69L802.19, 796.47L803.04, 794.31L804.1, 792.23L805.38, 790.26L1020.88, 492.66L1023.39, 489.74L1026.34, 487.3L1029.64, 485.38L1033.25, 484.02L1348.47, 394.86L1351.5, 394.22L1354.54, 393.99L1357.57, 394.17L1360.53, 394.74L1363.4, 395.69L1366.12, 397.01L1368.67, 398.69L1371, 400.73L1544.46, 574.2L1546.5, 576.53L1548.18, 579.07L1549.5, 581.8L1550.45, 584.66L1551.02, 587.62L1551.2, 590.65L1550.97, 593.69L1550.33, 596.72L1461.17, 911.94L1459.82, 915.54L1457.89, 918.85L1455.45, 921.79L1452.53, 924.31L1154.93, 1139.81L1152.96, 1141.09L1150.89, 1142.15L1148.73, 1142.99L1146.5, 1143.62L1144.22, 1144.01L1141.9, 1144.18L1139.57, 1144.11L1137.24, 1143.8L869.49, 1094.12"/><path stroke="black" fill="none" stroke-width="1" d="M835.77, 1080.54L832.43, 1079.46L829.34, 1077.91L826.55, 1075.93L824.1, 1073.58L822.02, 1070.9L820.35, 1067.91L819.13, 1064.69L818.4, 1061.25L782.5, 793.62L782.3, 791.27L782.35, 788.94L782.63, 786.63L783.14, 784.37L783.88, 782.17L784.83, 780.06L786, 778.04L787.39, 776.13L1015.26, 493.39L1017.93, 490.6L1021.01, 488.3L1024.43, 486.55L1028.12, 485.39L1344.31, 414.27L1347.36, 413.79L1350.41, 413.73L1353.41, 414.06L1356.34, 414.79L1359.14, 415.89L1361.78, 417.35L1364.23, 419.16L1366.45, 421.32L1529.49, 602.38L1531.4, 604.81L1532.94, 607.44L1534.12, 610.22L1534.92, 613.12L1535.33, 616.11L1535.35, 619.13L1534.97, 622.15L1534.18, 625.14L1430.4, 932.17L1428.86, 935.71L1426.76, 938.93L1424.15, 941.75L1421.09, 944.12L1116.08, 1141.19L1114.04, 1142.36L1111.91, 1143.32L1109.7, 1144.05L1107.44, 1144.55L1105.14, 1144.82L1102.82, 1144.86L1100.49, 1144.66L1098.18, 1144.22L835.77, 1080.54"/><path stroke="black" fill="none" stroke-width="1" d="M803.25, 1066.53L799.99, 1065.27L797.01, 1063.56L794.34, 1061.45L792.02, 1058.98L790.08, 1056.2L788.57, 1053.15L787.52, 1049.87L786.97, 1046.42L764.71, 779.61L764.63, 777.25L764.79, 774.92L765.19, 772.63L765.82, 770.39L766.67, 768.23L767.73, 766.16L769.01, 764.2L770.49, 762.36L1009.77, 494.96L1012.59, 492.29L1015.8, 490.15L1019.33, 488.58L1023.09, 487.61L1339.24, 434.38L1342.31, 434.08L1345.35, 434.18L1348.32, 434.67L1351.2, 435.55L1353.93, 436.8L1356.49, 438.39L1358.83, 440.33L1360.93, 442.59L1513.22, 630.65L1515, 633.17L1516.4, 635.86L1517.43, 638.7L1518.08, 641.63L1518.34, 644.63L1518.21, 647.64L1517.68, 650.64L1516.74, 653.57L1398.94, 951.75L1397.21, 955.23L1394.94, 958.35L1392.18, 961.04L1388.99, 963.25L1077.68, 1141.71L1075.58, 1142.78L1073.39, 1143.61L1071.14, 1144.22L1068.85, 1144.6L1066.53, 1144.75L1064.21, 1144.67L1061.89, 1144.34L1059.6, 1143.78L803.25, 1066.53"/><path stroke="black" fill="none" stroke-width="1" d="M771.96, 1052.14L768.78, 1050.71L765.9, 1048.85L763.36, 1046.61L761.18, 1044.03L759.4, 1041.17L758.06, 1038.05L757.18, 1034.74L756.8, 1031.28L747.99, 765.98L748.03, 763.61L748.31, 761.29L748.83, 759.01L749.57, 756.81L750.53, 754.69L751.7, 752.67L753.08, 750.77L754.65, 749.01L1004.37, 497.35L1007.34, 494.83L1010.68, 492.85L1014.29, 491.46L1018.12, 490.7L1333.23, 455.16L1336.3, 455.02L1339.33, 455.28L1342.27, 455.94L1345.09, 456.97L1347.75, 458.35L1350.21, 460.08L1352.45, 462.13L1354.42, 464.49L1495.67, 658.92L1497.31, 661.52L1498.57, 664.28L1499.45, 667.16L1499.95, 670.12L1500.06, 673.11L1499.77, 676.11L1499.09, 679.07L1498.01, 681.95L1366.83, 970.66L1364.92, 974.06L1362.48, 977.07L1359.57, 979.63L1356.25, 981.68L1039.74, 1141.41L1037.58, 1142.36L1035.35, 1143.09L1033.07, 1143.58L1030.76, 1143.83L1028.43, 1143.86L1026.11, 1143.64L1023.81, 1143.19L1021.55, 1142.5L771.96, 1052.14"/><path stroke="black" fill="none" stroke-width="1" d="M741.89, 1037.45L738.81, 1035.86L736.05, 1033.85L733.64, 1031.49L731.6, 1028.81L729.98, 1025.87L728.81, 1022.7L728.1, 1019.36L727.9, 1015.9L732.32, 752.78L732.48, 750.41L732.88, 748.1L733.51, 745.85L734.36, 743.68L735.43, 741.61L736.71, 739.65L738.18, 737.82L739.85, 736.14L999.02, 500.58L1002.13, 498.2L1005.58, 496.4L1009.28, 495.2L1013.16, 494.64L1326.26, 476.53L1329.33, 476.56L1332.33, 476.98L1335.22, 477.79L1337.98, 478.97L1340.55, 480.49L1342.92, 482.34L1345.04, 484.51L1346.88, 486.96L1476.86, 687.12L1478.36, 689.8L1479.47, 692.61L1480.2, 695.53L1480.54, 698.5L1480.5, 701.5L1480.06, 704.47L1479.23, 707.38L1478.01, 710.2L1334.12, 988.86L1332.03, 992.18L1329.43, 995.07L1326.38, 997.49L1322.94, 999.37L1002.32, 1140.32L1000.11, 1141.16L997.84, 1141.76L995.53, 1142.13L993.2, 1142.26L990.88, 1142.16L988.56, 1141.82L986.29, 1141.24L984.07, 1140.43L741.89, 1037.45"/><path stroke="black" fill="none" stroke-width="1" d="M713.06, 1022.53L710.08, 1020.78L707.44, 1018.64L705.17, 1016.16L703.28, 1013.39L701.83, 1010.38L700.82, 1007.17L700.28, 1003.81L700.25, 1000.36L717.66, 740.07L717.94, 737.71L718.46, 735.41L719.2, 733.19L720.17, 731.07L721.34, 729.05L722.72, 727.15L724.29, 725.4L726.04, 723.8L993.67, 504.63L996.92, 502.41L1000.47, 500.78L1004.25, 499.78L1008.17, 499.43L1318.31, 498.44L1321.37, 498.63L1324.33, 499.22L1327.17, 500.18L1329.85, 501.5L1332.34, 503.15L1334.6, 505.12L1336.6, 507.39L1338.3, 509.94L1456.8, 715.18L1458.15, 717.93L1459.12, 720.79L1459.69, 723.74L1459.88, 726.72L1459.68, 729.7L1459.1, 732.64L1458.12, 735.5L1456.76, 738.24L1300.84, 1006.33L1298.58, 1009.55L1295.82, 1012.32L1292.63, 1014.59L1289.08, 1016.29L965.45, 1138.48L963.19, 1139.2L960.89, 1139.68L958.56, 1139.93L956.23, 1139.93L953.9, 1139.7L951.61, 1139.24L949.36, 1138.54L947.18, 1137.6L713.06, 1022.53"/><path stroke="black" fill="none" stroke-width="1" d="M685.45, 1007.46L682.59, 1005.56L680.07, 1003.29L677.94, 1000.7L676.22, 997.85L674.92, 994.77L674.08, 991.53L673.72, 988.17L673.87, 984.73L703.98, 727.9L704.38, 725.55L705.01, 723.28L705.87, 721.1L706.94, 719.02L708.22, 717.06L709.69, 715.23L711.35, 713.56L713.19, 712.05L988.29, 509.5L991.67, 507.44L995.32, 506L999.16, 505.19L1003.11, 505.06L1309.35, 520.82L1312.39, 521.18L1315.31, 521.92L1318.09, 523.04L1320.69, 524.49L1323.08, 526.27L1325.22, 528.36L1327.1, 530.72L1328.66, 533.35L1435.51, 743.03L1436.71, 745.84L1437.53, 748.75L1437.95, 751.71L1437.98, 754.69L1437.63, 757.65L1436.9, 760.55L1435.78, 763.35L1434.29, 766.02L1267.04, 1023.04L1264.6, 1026.16L1261.7, 1028.8L1258.38, 1030.9L1254.73, 1032.42L929.16, 1135.92L926.87, 1136.52L924.54, 1136.88L922.19, 1137L919.86, 1136.88L917.54, 1136.53L915.27, 1135.94L913.06, 1135.11L910.93, 1134.06L685.45, 1007.46"/><path stroke="black" fill="none" stroke-width="1" d="M659.07, 992.3L656.32, 990.25L653.95, 987.86L651.97, 985.18L650.4, 982.25L649.27, 979.13L648.6, 975.86L648.41, 972.49L648.73, 969.08L691.24, 716.32L691.76, 713.99L692.5, 711.75L693.47, 709.61L694.65, 707.58L696.02, 705.69L697.59, 703.93L699.34, 702.35L701.26, 700.93L982.83, 515.19L986.32, 513.29L990.06, 512.04L993.95, 511.44L997.93, 511.51L1299.39, 543.62L1302.39, 544.14L1305.26, 545.04L1307.97, 546.3L1310.48, 547.89L1312.77, 549.79L1314.8, 551.98L1316.54, 554.44L1317.96, 557.14L1413.01, 770.61L1414.06, 773.47L1414.72, 776.41L1414.99, 779.38L1414.87, 782.36L1414.37, 785.29L1413.49, 788.14L1412.24, 790.88L1410.62, 793.46L1232.77, 1038.97L1230.17, 1041.97L1227.11, 1044.47L1223.68, 1046.41L1219.93, 1047.74L893.49, 1132.69L891.16, 1133.17L888.81, 1133.41L886.46, 1133.4L884.12, 1133.15L881.83, 1132.67L879.59, 1131.96L877.43, 1131.01L875.35, 1129.84L659.07, 992.3"/><path stroke="black" fill="none" stroke-width="1" d="M633.9, 977.13L631.28, 974.94L629.05, 972.44L627.22, 969.66L625.82, 966.67L624.86, 963.5L624.36, 960.22L624.34, 956.86L624.83, 953.49L679.39, 705.38L680.02, 703.08L680.88, 700.87L681.96, 698.78L683.24, 696.81L684.71, 694.98L686.37, 693.31L688.2, 691.81L690.19, 690.49L977.23, 521.66L980.84, 519.95L984.66, 518.88L988.6, 518.49L992.58, 518.79L1288.39, 566.78L1291.35, 567.46L1294.17, 568.51L1296.8, 569.91L1299.22, 571.63L1301.39, 573.65L1303.3, 575.94L1304.9, 578.47L1306.18, 581.24L1389.33, 797.85L1390.23, 800.75L1390.74, 803.71L1390.85, 806.69L1390.58, 809.64L1389.94, 812.54L1388.92, 815.34L1387.53, 818L1385.79, 820.5L1198.07, 1054.1L1195.31, 1056.98L1192.11, 1059.33L1188.57, 1061.09L1184.74, 1062.23L858.46, 1128.83L856.1, 1129.19L853.73, 1129.29L851.38, 1129.16L849.06, 1128.79L846.79, 1128.18L844.59, 1127.35L842.48, 1126.29L840.47, 1125L633.9, 977.13"/><path stroke="black" fill="none" stroke-width="1" d="M609.93, 962.01L607.45, 959.69L605.36, 957.08L603.69, 954.23L602.45, 951.17L601.66, 947.98L601.34, 944.68L601.49, 941.35L602.14, 938.01L668.39, 695.13L669.14, 692.86L670.11, 690.69L671.29, 688.65L672.67, 686.74L674.24, 684.99L675.99, 683.4L677.9, 681.99L679.96, 680.78L971.48, 528.93L975.19, 527.39L979.07, 526.53L983.05, 526.34L987.03, 526.86L1276.37, 590.23L1279.29, 591.07L1282.03, 592.27L1284.57, 593.81L1286.89, 595.65L1288.95, 597.77L1290.73, 600.16L1292.2, 602.77L1293.32, 605.59L1364.51, 824.68L1365.26, 827.62L1365.6, 830.6L1365.57, 833.57L1365.15, 836.5L1364.35, 839.35L1363.2, 842.09L1361.68, 844.67L1359.82, 847.07L1162.99, 1068.41L1160.07, 1071.16L1156.74, 1073.35L1153.09, 1074.93L1149.19, 1075.87L824.09, 1124.37L821.71, 1124.6L819.34, 1124.58L816.99, 1124.33L814.69, 1123.83L812.45, 1123.1L810.3, 1122.14L808.24, 1120.96L806.3, 1119.56L609.93, 962.01"/><path stroke="black" fill="none" stroke-width="1" d="M587.15, 947L584.81, 944.57L582.87, 941.86L581.37, 938.93L580.29, 935.83L579.67, 932.61L579.52, 929.32L579.84, 926.01L580.65, 922.73L658.2, 685.6L659.06, 683.36L660.14, 681.25L661.43, 679.26L662.9, 677.43L664.56, 675.75L666.39, 674.25L668.37, 672.94L670.49, 671.83L965.52, 536.96L969.32, 535.61L973.27, 534.95L977.27, 534.98L981.23, 535.71L1263.31, 613.91L1266.17, 614.91L1268.84, 616.26L1271.29, 617.92L1273.5, 619.88L1275.44, 622.11L1277.09, 624.58L1278.41, 627.26L1279.38, 630.12L1338.58, 851.04L1339.17, 854.01L1339.37, 856.99L1339.17, 859.95L1338.61, 862.85L1337.67, 865.65L1336.38, 868.32L1334.75, 870.82L1332.77, 873.12L1127.58, 1081.88L1124.51, 1084.49L1121.06, 1086.52L1117.31, 1087.92L1113.35, 1088.65L790.41, 1119.37L788.02, 1119.47L785.65, 1119.32L783.31, 1118.94L781.04, 1118.31L778.84, 1117.46L776.74, 1116.39L774.74, 1115.09L772.88, 1113.59L587.15, 947"/><path stroke="black" fill="none" stroke-width="1" d="M565.53, 932.18L563.34, 929.64L561.56, 926.84L560.21, 923.85L559.31, 920.71L558.86, 917.48L558.87, 914.2L559.36, 910.93L560.33, 907.71L648.76, 676.84L649.73, 674.65L650.92, 672.58L652.31, 670.66L653.88, 668.9L655.62, 667.3L657.53, 665.89L659.58, 664.68L661.76, 663.68L959.33, 545.74L963.21, 544.58L967.2, 544.13L971.21, 544.38L975.15, 545.33L1249.22, 637.77L1252.01, 638.92L1254.6, 640.41L1256.95, 642.2L1259.05, 644.27L1260.86, 646.59L1262.37, 649.14L1263.55, 651.88L1264.37, 654.78L1311.58, 876.88L1312.01, 879.87L1312.05, 882.85L1311.71, 885.79L1311, 888.65L1309.92, 891.39L1308.5, 893.99L1306.74, 896.4L1304.66, 898.58L1091.88, 1094.51L1088.67, 1096.98L1085.11, 1098.84L1081.28, 1100.05L1077.26, 1100.57L757.45, 1113.85L755.05, 1113.83L752.68, 1113.55L750.37, 1113.04L748.13, 1112.3L745.97, 1111.32L743.92, 1110.13L742, 1108.73L740.22, 1107.12L565.53, 932.18"/><path stroke="black" fill="none" stroke-width="1" d="M545.05, 917.61L543.01, 914.96L541.39, 912.09L540.21, 909.05L539.48, 905.88L539.2, 902.64L539.38, 899.38L540.03, 896.15L541.15, 893L640.02, 668.88L641.11, 666.73L642.4, 664.73L643.88, 662.87L645.55, 661.19L647.37, 659.68L649.35, 658.37L651.47, 657.26L653.7, 656.38L952.85, 555.25L956.8, 554.29L960.84, 554.05L964.85, 554.51L968.75, 555.68L1234.1, 661.75L1236.82, 663.05L1239.31, 664.66L1241.56, 666.58L1243.54, 668.75L1245.22, 671.16L1246.59, 673.78L1247.62, 676.57L1248.28, 679.51L1283.54, 902.14L1283.82, 905.14L1283.7, 908.11L1283.21, 911.02L1282.35, 913.83L1281.14, 916.51L1279.6, 919.03L1277.72, 921.34L1275.54, 923.41L1055.95, 1106.28L1052.61, 1108.6L1048.93, 1110.28L1045.02, 1111.3L1040.96, 1111.61L725.21, 1107.88L722.81, 1107.73L720.46, 1107.32L718.17, 1106.69L715.97, 1105.82L713.87, 1104.73L711.88, 1103.43L710.03, 1101.92L708.34, 1100.21L545.05, 917.61"/><path stroke="black" fill="none" stroke-width="1" d="M525.68, 903.35L523.8, 900.61L522.34, 897.66L521.34, 894.58L520.77, 891.39L520.66, 888.16L521.01, 884.93L521.81, 881.75L523.09, 878.67L631.94, 661.76L633.13, 659.66L634.53, 657.72L636.11, 655.94L637.85, 654.34L639.76, 652.92L641.81, 651.71L643.98, 650.71L646.26, 649.93L946.05, 565.47L950.07, 564.72L954.14, 564.68L958.14, 565.37L961.99, 566.76L1217.96, 685.78L1220.6, 687.22L1222.99, 688.97L1225.13, 691L1226.98, 693.27L1228.53, 695.76L1229.75, 698.44L1230.62, 701.27L1231.13, 704.23L1254.52, 926.77L1254.64, 929.77L1254.37, 932.72L1253.73, 935.6L1252.74, 938.35L1251.4, 940.96L1249.73, 943.39L1247.75, 945.6L1245.47, 947.55L1019.84, 1117.2L1016.37, 1119.36L1012.59, 1120.85L1008.61, 1121.67L1004.52, 1121.77L693.72, 1101.48L691.33, 1101.2L688.99, 1100.67L686.74, 1099.91L684.58, 1098.92L682.54, 1097.72L680.62, 1096.3L678.86, 1094.69L677.26, 1092.89L525.68, 903.35"/><path stroke="black" fill="none" stroke-width="1" d="M507.39, 889.46L505.67, 886.63L504.38, 883.63L503.55, 880.5L503.15, 877.31L503.21, 874.09L503.72, 870.9L504.68, 867.78L506.1, 864.78L624.46, 655.5L625.76, 653.46L627.25, 651.59L628.92, 649.88L630.75, 648.37L632.73, 647.05L634.84, 645.94L637.06, 645.05L639.39, 644.39L938.91, 576.38L942.99, 575.83L947.06, 576.01L951.05, 576.91L954.83, 578.52L1200.8, 709.81L1203.35, 711.39L1205.64, 713.26L1207.66, 715.4L1209.38, 717.76L1210.79, 720.32L1211.87, 723.06L1212.59, 725.92L1212.94, 728.9L1224.56, 950.71L1224.52, 953.71L1224.1, 956.64L1223.32, 959.46L1222.19, 962.16L1220.72, 964.69L1218.94, 967.02L1216.86, 969.12L1214.49, 970.96L983.59, 1127.25L979.99, 1129.24L976.13, 1130.55L972.09, 1131.16L967.98, 1131.04L662.98, 1094.71L660.6, 1094.3L658.3, 1093.65L656.08, 1092.76L653.98, 1091.66L652, 1090.34L650.16, 1088.82L648.48, 1087.11L646.98, 1085.22L507.39, 889.46"/><path stroke="black" fill="none" stroke-width="1" d="M490.15, 875.99L488.59, 873.08L487.48, 870.03L486.81, 866.89L486.59, 863.69L486.81, 860.49L487.48, 857.35L488.59, 854.3L490.15, 851.39L617.52, 650.13L618.92, 648.16L620.51, 646.35L622.26, 644.73L624.17, 643.31L626.22, 642.09L628.39, 641.08L630.66, 640.31L633.02, 639.77L931.39, 587.95L935.51, 587.61L939.59, 588.01L943.54, 589.13L947.26, 590.95L1182.65, 733.79L1185.1, 735.5L1187.28, 737.49L1189.17, 739.73L1190.76, 742.17L1192.02, 744.8L1192.95, 747.58L1193.52, 750.47L1193.71, 753.45L1193.71, 973.92L1193.52, 976.91L1192.95, 979.8L1192.02, 982.58L1190.76, 985.21L1189.17, 987.65L1187.28, 989.89L1185.1, 991.88L1182.65, 993.59L947.26, 1136.43L943.54, 1138.25L939.59, 1139.37L935.51, 1139.77L931.39, 1139.43L633.02, 1087.61L630.66, 1087.07L628.39, 1086.3L626.22, 1085.29L624.17, 1084.07L622.26, 1082.65L620.51, 1081.03L618.92, 1079.23L617.52, 1077.25L490.15, 875.99"/><path stroke="black" fill="none" stroke-width="1" d="M473.92, 863L472.53, 860.03L471.58, 856.94L471.09, 853.78L471.03, 850.59L471.42, 847.42L472.24, 844.33L473.5, 841.36L475.2, 838.55L611.07, 645.68L612.57, 643.77L614.25, 642.04L616.09, 640.51L618.07, 639.18L620.18, 638.06L622.4, 637.17L624.71, 636.51L627.1, 636.09L923.45, 600.15L927.61, 600.02L931.69, 600.64L935.59, 601.98L939.22, 604.01L1163.51, 757.66L1165.85, 759.5L1167.92, 761.6L1169.68, 763.92L1171.13, 766.45L1172.25, 769.13L1173.03, 771.95L1173.44, 774.86L1173.48, 777.84L1162.03, 996.37L1161.68, 999.33L1160.96, 1002.18L1159.9, 1004.9L1158.5, 1007.45L1156.79, 1009.81L1154.8, 1011.94L1152.52, 1013.81L1150, 1015.39L910.88, 1144.76L907.06, 1146.4L903.04, 1147.32L898.91, 1147.51L894.79, 1146.95L603.83, 1080.23L601.49, 1079.56L599.26, 1078.66L597.15, 1077.54L595.17, 1076.21L593.33, 1074.68L591.66, 1072.96L590.18, 1071.07L588.88, 1069.02L473.92, 863"/><path stroke="black" fill="none" stroke-width="1" d="M458.65, 850.54L457.43, 847.52L456.66, 844.39L456.34, 841.23L456.45, 838.06L457, 834.93L457.98, 831.9L459.38, 829.01L461.2, 826.3L605.05, 642.16L606.65, 640.32L608.41, 638.68L610.33, 637.24L612.38, 636L614.55, 634.99L616.82, 634.21L619.17, 633.67L621.58, 633.37L915.07, 612.96L919.25, 613.05L923.32, 613.89L927.16, 615.44L930.69, 617.68L1143.41, 781.36L1145.64, 783.33L1147.58, 785.53L1149.21, 787.94L1150.52, 790.53L1151.49, 793.26L1152.12, 796.11L1152.38, 799.03L1152.26, 802L1129.56, 1018L1129.06, 1020.93L1128.2, 1023.73L1126.99, 1026.39L1125.47, 1028.86L1123.65, 1031.12L1121.56, 1033.14L1119.2, 1034.89L1116.61, 1036.34L874.51, 1152.22L870.59, 1153.68L866.51, 1154.4L862.36, 1154.37L858.25, 1153.59L575.41, 1072.6L573.11, 1071.81L570.93, 1070.79L568.87, 1069.55L566.96, 1068.11L565.21, 1066.48L563.64, 1064.67L562.25, 1062.7L561.07, 1060.57L458.65, 850.54"/><path stroke="black" fill="none" stroke-width="1" d="M444.31, 838.66L443.27, 835.59L442.67, 832.45L442.52, 829.29L442.8, 826.14L443.5, 823.07L444.63, 820.11L446.16, 817.3L448.11, 814.71L599.4, 639.58L601.09, 637.83L602.94, 636.27L604.93, 634.92L607.05, 633.79L609.27, 632.89L611.58, 632.22L613.96, 631.8L616.39, 631.62L906.22, 626.35L910.42, 626.65L914.45, 627.71L918.23, 629.48L921.66, 631.92L1122.37, 804.86L1124.49, 806.93L1126.3, 809.23L1127.79, 811.72L1128.95, 814.37L1129.78, 817.14L1130.24, 820.01L1130.35, 822.93L1130.07, 825.88L1096.36, 1038.78L1095.71, 1041.67L1094.7, 1044.42L1093.37, 1047L1091.73, 1049.38L1089.8, 1051.54L1087.61, 1053.44L1085.18, 1055.07L1082.53, 1056.39L838.2, 1158.84L834.19, 1160.1L830.05, 1160.62L825.89, 1160.37L821.8, 1159.37L547.78, 1064.79L545.53, 1063.87L543.39, 1062.73L541.41, 1061.38L539.57, 1059.84L537.91, 1058.11L536.43, 1056.21L535.15, 1054.16L534.09, 1051.97L444.31, 838.66"/><path stroke="black" fill="none" stroke-width="1" d="M430.86, 827.41L429.99, 824.3L429.56, 821.15L429.58, 818L430.02, 814.89L430.88, 811.88L432.15, 808.99L433.82, 806.28L435.88, 803.8L594.08, 637.97L595.85, 636.3L597.78, 634.83L599.84, 633.58L602.02, 632.56L604.28, 631.77L606.63, 631.22L609.03, 630.91L611.47, 630.86L896.88, 640.28L901.08, 640.81L905.07, 642.08L908.77, 644.06L912.08, 646.7L1100.42, 828.09L1102.41, 830.27L1104.09, 832.65L1105.44, 835.21L1106.45, 837.91L1107.12, 840.72L1107.44, 843.6L1107.39, 846.51L1106.96, 849.43L1062.48, 1058.67L1061.68, 1061.51L1060.54, 1064.2L1059.09, 1066.7L1057.33, 1068.99L1055.31, 1071.05L1053.03, 1072.84L1050.53, 1074.34L1047.82, 1075.52L801.99, 1164.61L797.9, 1165.68L793.72, 1165.99L789.55, 1165.52L785.5, 1164.3L520.93, 1056.82L518.72, 1055.78L516.65, 1054.52L514.73, 1053.07L512.98, 1051.42L511.41, 1049.6L510.04, 1047.62L508.87, 1045.49L507.93, 1043.24L430.86, 827.41"/><path stroke="black" fill="none" stroke-width="1" d="M418.23, 816.82L417.54, 813.69L417.29, 810.54L417.47, 807.41L418.07, 804.35L419.09, 801.4L420.49, 798.6L422.29, 795.99L424.45, 793.63L589, 637.34L590.86, 635.75L592.87, 634.37L594.99, 633.23L597.22, 632.31L599.53, 631.63L601.91, 631.2L604.33, 631.02L606.78, 631.09L887.02, 654.73L889.14, 655.01L891.21, 655.48L895.16, 656.97L898.76, 659.16L900.41, 660.5L901.93, 661.99L1077.57, 851.01L1079.43, 853.28L1080.97, 855.75L1082.18, 858.37L1083.04, 861.12L1083.56, 863.95L1083.72, 866.83L1083.52, 869.73L1082.94, 872.61L1028, 1077.66L1027.06, 1080.45L1025.78, 1083.06L1024.2, 1085.48L1022.34, 1087.67L1020.22, 1089.61L1017.86, 1091.28L1015.29, 1092.65L1012.54, 1093.69L765.93, 1169.56L761.77, 1170.43L757.55, 1170.52L753.39, 1169.84L749.39, 1168.39L494.87, 1048.74L492.71, 1047.58L490.7, 1046.22L488.86, 1044.65L487.2, 1042.91L485.73, 1041L484.46, 1038.95L483.41, 1036.76L482.6, 1034.45L418.23, 816.82"/><path stroke="black" fill="none" stroke-width="1" d="M406.4, 806.95L405.88, 803.8L405.8, 800.66L406.15, 797.56L406.91, 794.55L408.07, 791.67L409.61, 788.96L411.52, 786.46L413.78, 784.22L584.13, 637.67L586.07, 636.18L588.15, 634.9L590.33, 633.86L592.61, 633.05L594.95, 632.49L597.35, 632.18L599.79, 632.12L602.23, 632.32L876.62, 669.67L878.73, 670.05L880.79, 670.64L882.77, 671.4L884.67, 672.34L886.48, 673.46L888.18, 674.74L889.76, 676.17L891.21, 677.76L1053.87, 873.57L1055.6, 875.94L1056.99, 878.48L1058.05, 881.16L1058.77, 883.93L1059.13, 886.78L1059.13, 889.65L1058.78, 892.53L1058.05, 895.37L992.96, 1095.71L991.88, 1098.44L990.47, 1100.98L988.78, 1103.3L986.81, 1105.39L984.6, 1107.21L982.17, 1108.75L979.55, 1109.99L976.76, 1110.89L730.07, 1173.7L727.96, 1174.13L725.84, 1174.36L721.6, 1174.24L717.45, 1173.34L715.45, 1172.6L713.51, 1171.67L469.57, 1040.6L467.47, 1039.33L465.54, 1037.85L463.78, 1036.18L462.21, 1034.35L460.85, 1032.36L459.69, 1030.23L458.76, 1027.99L458.08, 1025.63L406.4, 806.95"/><path stroke="black" fill="none" stroke-width="1" d="M395.3, 797.81L394.96, 794.66L395.05, 791.53L395.56, 788.48L396.47, 785.53L397.77, 782.73L399.43, 780.12L401.46, 777.73L403.82, 775.62L579.4, 638.99L581.42, 637.59L583.55, 636.42L585.79, 635.48L588.11, 634.79L590.49, 634.34L592.91, 634.15L595.35, 634.22L597.78, 634.54L865.65, 685.05L867.76, 685.55L869.79, 686.24L871.75, 687.11L873.61, 688.16L875.36, 689.38L877, 690.76L878.51, 692.29L879.87, 693.96L1029.34, 895.73L1030.93, 898.19L1032.18, 900.8L1033.09, 903.52L1033.65, 906.32L1033.86, 909.17L1033.71, 912.03L1033.2, 914.88L1032.33, 917.67L957.42, 1112.8L956.21, 1115.46L954.68, 1117.91L952.87, 1120.14L950.81, 1122.12L948.52, 1123.83L946.02, 1125.24L943.35, 1126.34L940.53, 1127.1L694.44, 1177.04L692.3, 1177.37L690.16, 1177.5L688.02, 1177.42L685.9, 1177.15L683.82, 1176.69L681.78, 1176.03L679.81, 1175.18L677.91, 1174.14L445.05, 1032.44L443.02, 1031.05L441.16, 1029.47L439.49, 1027.71L438.02, 1025.78L436.76, 1023.72L435.73, 1021.53L434.92, 1019.22L434.36, 1016.83L395.3, 797.81"/><path stroke="black" fill="none" stroke-width="1" d="M384.88, 789.45L384.72, 786.3L384.98, 783.21L385.65, 780.2L386.7, 777.32L388.14, 774.61L389.92, 772.1L392.05, 769.84L394.5, 767.85L574.75, 641.29L576.84, 639.98L579.04, 638.91L581.32, 638.09L583.68, 637.51L586.08, 637.19L588.51, 637.12L590.95, 637.31L593.37, 637.76L854.11, 700.85L856.2, 701.46L858.21, 702.26L860.13, 703.24L861.94, 704.4L863.64, 705.71L865.21, 707.19L866.64, 708.81L867.92, 710.57L1004.02, 917.46L1005.46, 919.99L1006.57, 922.65L1007.32, 925.41L1007.73, 928.23L1007.79, 931.08L1007.49, 933.92L1006.83, 936.73L1005.82, 939.46L921.46, 1128.92L920.11, 1131.5L918.46, 1133.87L916.55, 1135.99L914.4, 1137.85L912.03, 1139.44L909.48, 1140.72L906.76, 1141.68L903.91, 1142.3L659.09, 1179.6L656.93, 1179.83L654.76, 1179.85L652.62, 1179.67L650.5, 1179.29L648.43, 1178.71L646.42, 1177.94L644.48, 1176.98L642.63, 1175.84L421.28, 1024.29L419.32, 1022.79L417.55, 1021.11L415.98, 1019.25L414.61, 1017.25L413.46, 1015.12L412.54, 1012.87L411.86, 1010.52L411.44, 1008.09L384.88, 789.45"/><path stroke="black" fill="none" stroke-width="1" d="M375.1, 781.89L375.1, 778.76L375.53, 775.71L376.35, 772.76L377.55, 769.95L379.11, 767.34L381.02, 764.94L383.24, 762.79L385.77, 760.95L570.12, 644.56L572.28, 643.35L574.53, 642.39L576.87, 641.68L579.25, 641.22L581.67, 641.02L584.11, 641.07L586.54, 641.38L588.94, 641.96L841.97, 717.03L844.04, 717.76L846.02, 718.67L847.89, 719.75L849.65, 721.01L851.29, 722.42L852.79, 723.99L854.13, 725.7L855.32, 727.53L977.94, 938.72L979.24, 941.31L980.19, 944.02L980.79, 946.81L981.04, 949.63L980.94, 952.47L980.5, 955.28L979.7, 958.04L978.54, 960.71L885.13, 1144.05L883.65, 1146.55L881.89, 1148.81L879.88, 1150.83L877.64, 1152.58L875.2, 1154.03L872.6, 1155.18L869.85, 1156L866.98, 1156.48L624.06, 1181.41L621.87, 1181.53L619.7, 1181.44L617.55, 1181.15L615.45, 1180.66L613.4, 1179.98L611.42, 1179.1L609.52, 1178.04L607.72, 1176.79L398.25, 1016.21L396.37, 1014.6L394.69, 1012.82L393.22, 1010.88L391.96, 1008.8L390.93, 1006.6L390.14, 1004.3L389.59, 1001.91L389.3, 999.45L375.1, 781.89"/><path stroke="black" fill="none" stroke-width="1" d="M365.88, 775.17L366.06, 772.07L366.65, 769.05L367.62, 766.17L368.96, 763.45L370.65, 760.93L372.66, 758.65L374.97, 756.64L377.57, 754.93L565.47, 648.79L567.69, 647.69L569.99, 646.84L572.36, 646.25L574.77, 645.91L577.21, 645.82L579.64, 646L582.06, 646.43L584.44, 647.13L829.23, 733.56L831.27, 734.4L833.21, 735.41L835.04, 736.6L836.74, 737.96L838.31, 739.47L839.72, 741.13L840.99, 742.92L842.08, 744.83L951.15, 959.46L952.29, 962.11L953.09, 964.86L953.53, 967.66L953.63, 970.49L953.38, 973.31L952.79, 976.08L951.85, 978.78L950.56, 981.38L848.49, 1158.17L846.89, 1160.58L845.02, 1162.75L842.91, 1164.65L840.6, 1166.28L838.1, 1167.6L835.45, 1168.62L832.67, 1169.3L829.8, 1169.64L589.39, 1182.49L587.19, 1182.5L585.01, 1182.31L582.86, 1181.91L580.77, 1181.3L578.75, 1180.51L576.8, 1179.52L574.95, 1178.35L573.21, 1177L375.96, 1008.22L374.17, 1006.51L372.58, 1004.64L371.21, 1002.61L370.07, 1000.46L369.16, 998.2L368.49, 995.85L368.07, 993.43L367.92, 990.96L365.88, 775.17"/><path stroke="black" fill="none" stroke-width="1" d="M357.19, 769.3L357.54, 766.23L358.28, 763.27L359.4, 760.47L360.87, 757.84L362.67, 755.43L364.78, 753.26L367.18, 751.38L369.84, 749.81L560.72, 653.98L563, 652.99L565.35, 652.26L567.75, 651.78L570.18, 651.56L572.62, 651.59L575.05, 651.89L577.45, 652.45L579.8, 653.27L815.86, 750.4L817.87, 751.34L819.77, 752.47L821.54, 753.76L823.18, 755.22L824.67, 756.82L826.01, 758.56L827.18, 760.43L828.17, 762.42L923.67, 979.65L924.66, 982.36L925.3, 985.13L925.6, 987.95L925.54, 990.76L925.14, 993.55L924.4, 996.28L923.32, 998.92L921.91, 1001.43L811.6, 1171.29L809.88, 1173.61L807.91, 1175.66L805.72, 1177.45L803.33, 1178.95L800.78, 1180.15L798.09, 1181.02L795.3, 1181.57L792.42, 1181.76L555.12, 1182.87L552.9, 1182.77L550.72, 1182.47L548.59, 1181.95L546.51, 1181.24L544.52, 1180.34L542.62, 1179.25L540.82, 1177.97L539.14, 1176.52L354.39, 1000.37L352.69, 998.56L351.2, 996.6L349.94, 994.5L348.91, 992.28L348.13, 989.97L347.59, 987.58L347.3, 985.14L347.29, 982.65L357.19, 769.3"/><path stroke="black" fill="none" stroke-width="1" d="M348.95, 764.3L349.47, 761.28L350.37, 758.38L351.63, 755.66L353.23, 753.13L355.14, 750.83L357.34, 748.79L359.81, 747.04L362.53, 745.61L555.84, 660.12L558.17, 659.23L560.56, 658.61L562.98, 658.25L565.43, 658.15L567.87, 658.31L570.29, 658.73L572.66, 659.41L574.97, 660.35L801.87, 767.52L803.84, 768.57L805.69, 769.8L807.4, 771.19L808.97, 772.74L810.39, 774.43L811.63, 776.26L812.7, 778.2L813.59, 780.25L895.56, 999.27L896.4, 1002.02L896.88, 1004.82L897.02, 1007.63L896.81, 1010.43L896.26, 1013.19L895.38, 1015.86L894.16, 1018.43L892.63, 1020.85L774.53, 1183.4L772.7, 1185.61L770.64, 1187.56L768.36, 1189.22L765.91, 1190.59L763.31, 1191.65L760.59, 1192.39L757.79, 1192.8L754.91, 1192.85L521.28, 1182.58L519.06, 1182.37L516.88, 1181.95L514.76, 1181.33L512.71, 1180.51L510.75, 1179.5L508.9, 1178.3L507.16, 1176.92L505.55, 1175.37L333.51, 992.68L331.91, 990.78L330.53, 988.74L329.38, 986.57L328.47, 984.29L327.81, 981.94L327.41, 979.52L327.26, 977.06L327.38, 974.57L348.95, 764.3"/><path stroke="black" fill="none" stroke-width="1" d="M341.13, 760.19L341.8, 757.22L342.85, 754.4L344.25, 751.76L345.96, 749.34L347.98, 747.15L350.27, 745.24L352.81, 743.63L355.57, 742.35L550.76, 667.17L553.13, 666.4L555.56, 665.9L558, 665.66L560.46, 665.68L562.89, 665.96L565.29, 666.51L567.63, 667.31L569.89, 668.36L787.23, 784.87L789.16, 786.03L790.96, 787.36L792.61, 788.85L794.1, 790.5L795.43, 792.27L796.59, 794.17L797.55, 796.19L798.33, 798.3L866.85, 1018.29L867.53, 1021.07L867.86, 1023.88L867.84, 1026.69L867.48, 1029.46L866.79, 1032.17L865.77, 1034.79L864.42, 1037.28L862.77, 1039.61L737.34, 1194.49L735.41, 1196.6L733.25, 1198.43L730.91, 1199.97L728.4, 1201.21L725.76, 1202.14L723.02, 1202.74L720.2, 1203.01L717.34, 1202.92L487.91, 1181.64L485.68, 1181.32L483.51, 1180.79L481.41, 1180.06L479.4, 1179.13L477.48, 1178L475.68, 1176.7L474, 1175.22L472.47, 1173.58L313.32, 985.21L311.81, 983.22L310.54, 981.09L309.51, 978.86L308.73, 976.54L308.2, 974.14L307.93, 971.7L307.91, 969.22L308.17, 966.74L341.13, 760.19"/><path stroke="black" fill="none" stroke-width="1" d="M333.65, 756.97L334.48, 754.07L335.67, 751.33L337.2, 748.79L339.03, 746.47L341.14, 744.41L343.51, 742.63L346.1, 741.16L348.91, 740.02L545.43, 675.13L547.85, 674.48L550.3, 674.09L552.76, 673.97L555.21, 674.11L557.64, 674.52L560.01, 675.18L562.32, 676.1L564.53, 677.28L771.96, 802.43L773.84, 803.69L775.57, 805.12L777.15, 806.71L778.57, 808.44L779.81, 810.3L780.86, 812.28L781.73, 814.36L782.39, 816.53L837.59, 1036.69L838.11, 1039.49L838.28, 1042.3L838.11, 1045.09L837.6, 1047.83L836.76, 1050.49L835.61, 1053.04L834.14, 1055.44L832.37, 1057.67L700.09, 1204.59L698.06, 1206.58L695.82, 1208.29L693.41, 1209.71L690.85, 1210.82L688.18, 1211.61L685.42, 1212.07L682.61, 1212.19L679.77, 1211.97L455.04, 1180.08L452.81, 1179.65L450.65, 1179.01L448.58, 1178.17L446.6, 1177.13L444.73, 1175.9L442.99, 1174.5L441.38, 1172.92L439.93, 1171.18L293.78, 977.97L292.38, 975.9L291.23, 973.7L290.32, 971.41L289.66, 969.04L289.26, 966.61L289.12, 964.15L289.25, 961.68L289.65, 959.21L333.65, 756.97"/><path stroke="black" fill="none" stroke-width="1" d="M326.46, 754.67L327.44, 751.83L328.77, 749.18L330.42, 746.75L332.36, 744.55L334.56, 742.61L336.99, 740.96L339.64, 739.63L342.48, 738.65L539.81, 683.97L542.26, 683.43L544.73, 683.16L547.2, 683.17L549.65, 683.43L552.06, 683.96L554.4, 684.74L556.66, 685.78L558.81, 687.07L756.03, 820.15L757.86, 821.52L759.53, 823.05L761.03, 824.73L762.36, 826.55L763.51, 828.48L764.46, 830.53L765.22, 832.67L765.76, 834.89L807.82, 1054.44L808.18, 1057.25L808.19, 1060.06L807.87, 1062.82L807.21, 1065.52L806.24, 1068.12L804.96, 1070.59L803.37, 1072.9L801.49, 1075.03L662.84, 1213.68L660.71, 1215.56L658.4, 1217.14L655.93, 1218.43L653.33, 1219.4L650.63, 1220.06L647.87, 1220.38L645.06, 1220.37L642.25, 1220.01L422.7, 1177.95L420.48, 1177.41L418.34, 1176.66L416.29, 1175.7L414.36, 1174.55L412.54, 1173.22L410.86, 1171.72L409.33, 1170.05L407.96, 1168.22L274.88, 971L273.59, 968.85L272.55, 966.59L271.77, 964.25L271.24, 961.84L270.98, 959.39L270.98, 956.92L271.24, 954.45L271.78, 952L326.46, 754.67"/><path stroke="black" fill="none" stroke-width="1" d="M319.5, 753.27L320.63, 750.52L322.1, 747.97L323.86, 745.64L325.89, 743.56L328.17, 741.75L330.67, 740.24L333.37, 739.05L336.23, 738.21L533.84, 693.66L536.31, 693.24L538.8, 693.1L541.28, 693.22L543.72, 693.61L546.1, 694.26L548.41, 695.16L550.62, 696.31L552.71, 697.71L739.46, 838L741.23, 839.47L742.83, 841.1L744.25, 842.87L745.49, 844.77L746.54, 846.78L747.39, 848.89L748.02, 851.08L748.44, 853.35L777.58, 1071.52L777.78, 1074.34L777.64, 1077.13L777.17, 1079.86L776.37, 1082.51L775.26, 1085.04L773.85, 1087.43L772.15, 1089.64L770.17, 1091.66L625.65, 1221.79L623.44, 1223.55L621.06, 1225.01L618.53, 1226.16L615.9, 1227L613.18, 1227.51L610.42, 1227.7L607.63, 1227.55L604.85, 1227.05L390.91, 1175.27L388.71, 1174.62L386.59, 1173.75L384.58, 1172.69L382.69, 1171.44L380.94, 1170.01L379.32, 1168.4L377.87, 1166.64L376.59, 1164.73L256.59, 964.34L255.42, 962.11L254.5, 959.8L253.84, 957.41L253.45, 954.97L253.32, 952.5L253.45, 950.02L253.86, 947.57L254.53, 945.14L319.5, 753.27"/><path stroke="black" fill="none" stroke-width="1" d="M312.72, 752.79L314, 750.13L315.58, 747.67L317.45, 745.46L319.58, 743.51L321.93, 741.83L324.49, 740.46L327.22, 739.42L330.09, 738.72L527.47, 704.18L529.97, 703.88L532.47, 703.86L534.94, 704.1L537.37, 704.61L539.72, 705.38L541.99, 706.4L544.14, 707.66L546.16, 709.17L722.23, 855.95L723.94, 857.52L725.46, 859.25L726.8, 861.1L727.95, 863.08L728.89, 865.16L729.63, 867.33L730.15, 869.57L730.44, 871.87L746.93, 1087.92L746.97, 1090.73L746.67, 1093.5L746.05, 1096.19L745.12, 1098.78L743.88, 1101.24L742.35, 1103.54L740.54, 1105.65L738.47, 1107.55L588.57, 1228.93L586.28, 1230.56L583.84, 1231.89L581.27, 1232.91L578.61, 1233.61L575.89, 1233.99L573.13, 1234.03L570.36, 1233.75L567.62, 1233.12L359.71, 1172.08L357.52, 1171.32L355.44, 1170.34L353.47, 1169.17L351.63, 1167.82L349.94, 1166.28L348.4, 1164.59L347.03, 1162.73L345.85, 1160.74L238.88, 958L237.83, 955.71L237.04, 953.34L236.51, 950.91L236.25, 948.45L236.26, 945.97L236.53, 943.5L237.08, 941.06L237.89, 938.68L312.72, 752.79"/><path stroke="black" fill="none" stroke-width="1" d="M306.06, 753.22L307.47, 750.65L309.18, 748.31L311.15, 746.21L313.36, 744.39L315.78, 742.85L318.38, 741.62L321.13, 740.73L324.01, 740.18L520.67, 715.49L523.19, 715.31L525.69, 715.41L528.15, 715.78L530.55, 716.41L532.87, 717.29L535.09, 718.43L537.18, 719.8L539.13, 721.41L704.36, 873.96L706, 875.63L707.44, 877.44L708.69, 879.38L709.74, 881.43L710.58, 883.57L711.2, 885.8L711.59, 888.08L711.76, 890.41L715.9, 1103.63L715.79, 1106.43L715.34, 1109.16L714.57, 1111.8L713.5, 1114.32L712.13, 1116.69L710.49, 1118.9L708.58, 1120.9L706.42, 1122.68L551.67, 1235.12L549.31, 1236.62L546.82, 1237.82L544.21, 1238.7L541.53, 1239.26L538.8, 1239.5L536.05, 1239.42L533.32, 1239L530.62, 1238.24L329.12, 1168.41L326.95, 1167.53L324.9, 1166.45L322.98, 1165.18L321.2, 1163.72L319.57, 1162.09L318.12, 1160.3L316.84, 1158.37L315.76, 1156.3L221.74, 952.01L220.81, 949.66L220.15, 947.25L219.75, 944.79L219.63, 942.31L219.77, 939.83L220.18, 937.37L220.86, 934.96L221.81, 932.62L306.06, 753.22"/><path stroke="black" fill="none" stroke-width="1" d="M299.46, 754.55L301, 752.09L302.82, 749.86L304.88, 747.89L307.17, 746.2L309.64, 744.8L312.28, 743.71L315.05, 742.96L317.93, 742.55L513.38, 727.56L515.91, 727.51L518.41, 727.73L520.86, 728.22L523.24, 728.97L525.52, 729.97L527.68, 731.21L529.71, 732.7L531.58, 734.41L685.85, 891.99L687.41, 893.76L688.77, 895.66L689.93, 897.67L690.87, 899.79L691.6, 902L692.1, 904.27L692.37, 906.59L692.4, 908.94L684.54, 1118.63L684.27, 1121.4L683.68, 1124.09L682.77, 1126.67L681.57, 1129.12L680.08, 1131.41L678.33, 1133.51L676.33, 1135.4L674.09, 1137.06L515, 1240.38L512.58, 1241.75L510.03, 1242.81L507.4, 1243.55L504.7, 1243.98L501.98, 1244.08L499.25, 1243.86L496.55, 1243.31L493.91, 1242.43L299.15, 1164.32L297.02, 1163.33L295.01, 1162.14L293.13, 1160.76L291.42, 1159.2L289.87, 1157.48L288.49, 1155.6L287.31, 1153.58L286.33, 1151.44L205.12, 946.41L204.32, 944.01L203.79, 941.55L203.53, 939.07L203.54, 936.58L203.82, 934.11L204.37, 931.67L205.19, 929.3L206.27, 927L299.46, 754.55"/><path stroke="black" fill="none" stroke-width="1" d="M292.87, 756.78L294.53, 754.43L296.46, 752.32L298.61, 750.48L300.96, 748.92L303.48, 747.66L306.15, 746.72L308.93, 746.11L311.81, 745.85L505.58, 740.36L508.11, 740.43L510.61, 740.77L513.04, 741.38L515.38, 742.25L517.61, 743.36L519.71, 744.72L521.67, 746.3L523.45, 748.11L666.7, 910.02L668.18, 911.87L669.45, 913.86L670.51, 915.95L671.34, 918.13L671.95, 920.39L672.33, 922.7L672.47, 925.05L672.37, 927.42L652.91, 1132.92L652.48, 1135.66L651.74, 1138.3L650.7, 1140.81L649.37, 1143.18L647.77, 1145.37L645.91, 1147.37L643.82, 1149.14L641.51, 1150.67L478.61, 1244.73L476.13, 1245.97L473.55, 1246.89L470.89, 1247.5L468.19, 1247.78L465.48, 1247.75L462.78, 1247.4L460.12, 1246.72L457.54, 1245.72L269.84, 1159.83L267.73, 1158.73L265.77, 1157.43L263.95, 1155.95L262.3, 1154.29L260.83, 1152.47L259.55, 1150.51L258.46, 1148.42L257.6, 1146.21L189.01, 941.2L188.34, 938.75L187.94, 936.27L187.82, 933.77L187.97, 931.28L188.39, 928.82L189.07, 926.41L190.02, 924.08L191.23, 921.85L292.87, 756.78"/><path stroke="black" fill="none" stroke-width="1" d="M286.24, 759.89L288.02, 757.65L290.03, 755.67L292.26, 753.97L294.67, 752.55L297.23, 751.43L299.92, 750.63L302.71, 750.17L305.57, 750.05L497.21, 753.85L499.75, 754.04L502.23, 754.5L504.63, 755.23L506.93, 756.21L509.11, 757.44L511.15, 758.9L513.03, 760.59L514.73, 762.49L646.92, 927.99L648.32, 929.94L649.49, 932L650.45, 934.17L651.17, 936.41L651.66, 938.71L651.91, 941.06L651.92, 943.44L651.69, 945.82L621.03, 1146.5L620.46, 1149.2L619.57, 1151.78L618.39, 1154.22L616.94, 1156.49L615.23, 1158.59L613.29, 1160.47L611.12, 1162.12L608.74, 1163.52L442.55, 1248.2L440.02, 1249.3L437.41, 1250.09L434.74, 1250.55L432.04, 1250.7L429.35, 1250.54L426.68, 1250.06L424.07, 1249.26L421.55, 1248.14L241.18, 1154.98L239.12, 1153.77L237.2, 1152.37L235.45, 1150.78L233.87, 1149.03L232.48, 1147.13L231.29, 1145.09L230.32, 1142.92L229.56, 1140.65L173.37, 936.42L172.83, 933.93L172.57, 931.42L172.58, 928.91L172.87, 926.43L173.43, 923.99L174.25, 921.62L175.33, 919.34L176.67, 917.17L286.24, 759.89"/><path stroke="black" fill="none" stroke-width="1" d="M279.51, 763.88L281.4, 761.76L283.5, 759.91L285.79, 758.34L288.25, 757.06L290.85, 756.08L293.55, 755.43L296.34, 755.1L299.17, 755.12L488.25, 767.98L490.79, 768.29L493.25, 768.88L495.62, 769.73L497.87, 770.82L499.99, 772.16L501.96, 773.73L503.76, 775.51L505.36, 777.49L626.52, 945.9L627.83, 947.93L628.91, 950.07L629.75, 952.3L630.36, 954.6L630.73, 956.94L630.85, 959.32L630.73, 961.72L630.35, 964.1L588.97, 1159.36L588.24, 1162L587.22, 1164.52L585.91, 1166.88L584.35, 1169.06L582.54, 1171.05L580.5, 1172.81L578.26, 1174.34L575.82, 1175.6L406.87, 1250.82L404.3, 1251.79L401.67, 1252.43L398.99, 1252.76L396.31, 1252.78L393.64, 1252.48L391.01, 1251.87L388.46, 1250.95L386.01, 1249.72L213.21, 1149.83L211.18, 1148.51L209.32, 1147L207.64, 1145.32L206.14, 1143.47L204.84, 1141.48L203.75, 1139.36L202.88, 1137.13L202.25, 1134.8L158.17, 932.08L157.76, 929.55L157.64, 927.03L157.8, 924.52L158.22, 922.05L158.92, 919.63L159.87, 917.31L161.08, 915.09L162.54, 912.99L279.51, 763.88"/><path stroke="black" fill="none" stroke-width="1" d="M272.64, 768.71L274.62, 766.72L276.8, 765L279.16, 763.57L281.66, 762.43L284.28, 761.6L286.99, 761.09L289.76, 760.9L292.56, 761.06L478.67, 782.72L481.19, 783.15L483.63, 783.86L485.96, 784.82L488.16, 786.03L490.22, 787.48L492.11, 789.14L493.82, 791.01L495.33, 793.08L605.52, 963.7L606.73, 965.81L607.7, 968.02L608.43, 970.31L608.92, 972.66L609.17, 975.04L609.16, 977.44L608.9, 979.85L608.38, 982.23L556.76, 1171.5L555.88, 1174.08L554.73, 1176.52L553.3, 1178.79L551.62, 1180.88L549.72, 1182.75L547.6, 1184.4L545.29, 1185.79L542.81, 1186.92L371.62, 1252.63L369.02, 1253.46L366.37, 1253.96L363.7, 1254.16L361.03, 1254.04L358.39, 1253.61L355.81, 1252.88L353.32, 1251.85L350.94, 1250.51L185.93, 1144.39L183.95, 1142.97L182.15, 1141.36L180.53, 1139.57L179.12, 1137.64L177.91, 1135.57L176.92, 1133.38L176.17, 1131.08L175.66, 1128.7L143.38, 928.18L143.11, 925.64L143.13, 923.1L143.42, 920.6L143.99, 918.15L144.82, 915.77L145.9, 913.5L147.24, 911.34L148.82, 909.33L272.64, 768.71"/><path stroke="black" fill="none" stroke-width="1" d="M265.57, 774.36L267.63, 772.51L269.89, 770.93L272.29, 769.64L274.83, 768.65L277.46, 767.96L280.17, 767.59L282.92, 767.54L285.69, 767.83L468.43, 798.02L470.93, 798.57L473.34, 799.4L475.62, 800.48L477.77, 801.8L479.76, 803.35L481.58, 805.11L483.19, 807.07L484.6, 809.22L583.91, 981.36L585.03, 983.55L585.89, 985.83L586.51, 988.17L586.88, 990.56L586.99, 992.98L586.85, 995.4L586.45, 997.8L585.79, 1000.17L524.44, 1182.93L523.43, 1185.45L522.14, 1187.8L520.6, 1189.98L518.82, 1191.96L516.83, 1193.72L514.64, 1195.24L512.27, 1196.5L509.74, 1197.49L336.85, 1253.66L334.22, 1254.34L331.57, 1254.71L328.9, 1254.77L326.25, 1254.52L323.65, 1253.97L321.13, 1253.12L318.7, 1251.97L316.4, 1250.53L159.34, 1138.73L157.42, 1137.2L155.68, 1135.49L154.15, 1133.62L152.82, 1131.6L151.71, 1129.45L150.83, 1127.19L150.19, 1124.84L149.8, 1122.41L128.97, 924.77L128.84, 922.2L129, 919.66L129.43, 917.17L130.14, 914.75L131.1, 912.42L132.31, 910.21L133.77, 908.12L135.47, 906.2L265.57, 774.36"/><path stroke="black" fill="none" stroke-width="1" d="M258.25, 780.83L260.4, 779.11L262.71, 777.67L265.16, 776.52L267.72, 775.67L270.37, 775.13L273.06, 774.9L275.78, 774.99L278.51, 775.4L457.5, 813.83L459.98, 814.51L462.35, 815.46L464.59, 816.65L466.67, 818.07L468.59, 819.72L470.32, 821.57L471.85, 823.62L473.14, 825.84L561.73, 998.85L562.74, 1001.11L563.49, 1003.45L563.99, 1005.85L564.23, 1008.27L564.21, 1010.71L563.94, 1013.14L563.4, 1015.54L562.6, 1017.89L492.06, 1193.66L490.91, 1196.1L489.5, 1198.36L487.85, 1200.44L485.98, 1202.3L483.9, 1203.94L481.65, 1205.33L479.23, 1206.46L476.67, 1207.31L302.59, 1253.95L299.95, 1254.5L297.29, 1254.73L294.64, 1254.65L292.02, 1254.27L289.47, 1253.59L287, 1252.62L284.65, 1251.37L282.43, 1249.83L133.46, 1132.88L131.6, 1131.25L129.93, 1129.44L128.48, 1127.47L127.24, 1125.37L126.24, 1123.14L125.47, 1120.82L124.95, 1118.42L124.69, 1115.95L114.91, 921.83L114.92, 919.25L115.22, 916.72L115.79, 914.25L116.63, 911.87L117.72, 909.59L119.06, 907.44L120.64, 905.44L122.45, 903.61L258.25, 780.83"/><path stroke="black" fill="none" stroke-width="1" d="M250.65, 788.07L252.87, 786.49L255.23, 785.2L257.72, 784.19L260.29, 783.49L262.93, 783.08L265.61, 782.99L268.3, 783.21L270.97, 783.75L445.87, 830.12L448.32, 830.92L450.65, 831.98L452.83, 833.28L454.85, 834.81L456.69, 836.56L458.33, 838.5L459.75, 840.62L460.94, 842.91L538.98, 1016.14L539.88, 1018.48L540.52, 1020.87L540.9, 1023.31L541.01, 1025.77L540.86, 1028.23L540.44, 1030.66L539.76, 1033.05L538.82, 1035.37L459.67, 1203.69L458.39, 1206.04L456.86, 1208.21L455.11, 1210.18L453.14, 1211.92L451, 1213.44L448.68, 1214.7L446.22, 1215.69L443.64, 1216.4L268.88, 1253.54L266.23, 1253.94L263.58, 1254.04L260.95, 1253.83L258.37, 1253.32L255.87, 1252.52L253.47, 1251.44L251.19, 1250.08L249.07, 1248.45L108.3, 1126.88L106.49, 1125.14L104.9, 1123.24L103.53, 1121.19L102.4, 1119L101.5, 1116.71L100.85, 1114.33L100.46, 1111.88L100.33, 1109.38L101.16, 919.38L101.32, 916.81L101.75, 914.29L102.46, 911.85L103.44, 909.51L104.66, 907.29L106.12, 905.21L107.82, 903.3L109.73, 901.57L250.65, 788.07"/><path stroke="black" fill="none" stroke-width="1" d="M242.71, 796.07L245, 794.63L247.4, 793.48L249.91, 792.62L252.5, 792.06L255.13, 791.79L257.78, 791.83L260.43, 792.18L263.04, 792.85L433.5, 846.84L435.92, 847.76L438.2, 848.93L440.32, 850.34L442.27, 851.97L444.03, 853.8L445.58, 855.83L446.9, 858.02L447.98, 860.38L515.68, 1033.21L516.47, 1035.61L516.99, 1038.06L517.24, 1040.54L517.22, 1043.03L516.93, 1045.5L516.38, 1047.93L515.56, 1050.29L514.48, 1052.58L427.3, 1213.03L425.9, 1215.29L424.26, 1217.36L422.41, 1219.21L420.36, 1220.84L418.15, 1222.22L415.78, 1223.35L413.29, 1224.2L410.69, 1224.77L235.76, 1252.47L233.11, 1252.73L230.48, 1252.69L227.88, 1252.35L225.35, 1251.72L222.9, 1250.81L220.57, 1249.62L218.37, 1248.16L216.34, 1246.44L83.85, 1120.78L82.11, 1118.94L80.6, 1116.94L79.32, 1114.8L78.28, 1112.54L77.49, 1110.19L76.96, 1107.75L76.7, 1105.26L76.71, 1102.73L87.7, 917.44L88, 914.87L88.57, 912.37L89.42, 909.97L90.52, 907.68L91.87, 905.53L93.46, 903.53L95.26, 901.71L97.28, 900.09L242.71, 796.07"/><path stroke="black" fill="none" stroke-width="1" d="M234.41, 804.78L236.74, 803.48L239.18, 802.48L241.71, 801.77L244.29, 801.34L246.9, 801.22L249.52, 801.39L252.12, 801.87L254.67, 802.65L420.39, 863.93L422.77, 864.96L425, 866.25L427.05, 867.76L428.93, 869.49L430.59, 871.41L432.04, 873.51L433.26, 875.78L434.22, 878.19L491.85, 1050.02L492.53, 1052.48L492.93, 1054.98L493.05, 1057.49L492.89, 1060L492.47, 1062.47L491.77, 1064.89L490.81, 1067.23L489.58, 1069.47L394.99, 1221.7L393.47, 1223.86L391.73, 1225.82L389.79, 1227.55L387.67, 1229.05L385.4, 1230.31L382.99, 1231.3L380.47, 1232.01L377.86, 1232.44L203.27, 1250.79L200.63, 1250.91L198.01, 1250.74L195.45, 1250.27L192.97, 1249.52L190.59, 1248.49L188.33, 1247.2L186.22, 1245.65L184.28, 1243.85L60.1, 1114.61L58.44, 1112.67L57.01, 1110.58L55.83, 1108.36L54.9, 1106.04L54.22, 1103.62L53.82, 1101.14L53.69, 1098.61L53.84, 1096.06L74.49, 916L74.93, 913.44L75.64, 910.97L76.62, 908.62L77.86, 906.39L79.33, 904.31L81.03, 902.4L82.94, 900.68L85.05, 899.18L234.41, 804.78"/><path stroke="black" fill="none" stroke-width="1" d="M225.69, 814.17L228.06, 813.03L230.53, 812.17L233.06, 811.6L235.64, 811.32L238.23, 811.33L240.8, 811.63L243.35, 812.22L245.83, 813.11L406.52, 881.35L408.85, 882.5L411.02, 883.89L413.01, 885.51L414.8, 887.33L416.37, 889.33L417.72, 891.51L418.83, 893.84L419.67, 896.3L467.52, 1066.56L468.07, 1069.08L468.35, 1071.62L468.33, 1074.16L468.04, 1076.68L467.48, 1079.15L466.64, 1081.55L465.54, 1083.85L464.17, 1086.04L362.79, 1229.72L361.15, 1231.78L359.31, 1233.62L357.29, 1235.23L355.11, 1236.6L352.78, 1237.71L350.34, 1238.57L347.81, 1239.14L345.2, 1239.43L171.43, 1248.53L168.8, 1248.52L166.22, 1248.21L163.7, 1247.62L161.27, 1246.75L158.96, 1245.62L156.78, 1244.23L154.76, 1242.59L152.92, 1240.72L37.07, 1108.43L35.49, 1106.4L34.15, 1104.22L33.06, 1101.92L32.24, 1099.52L31.69, 1097.05L31.41, 1094.52L31.41, 1091.96L31.71, 1089.4L61.49, 915.07L62.07, 912.53L62.93, 910.1L64.04, 907.8L65.4, 905.64L66.99, 903.64L68.8, 901.83L70.81, 900.21L73.01, 898.83L225.69, 814.17"/><path stroke="black" fill="none" stroke-width="1" d="M216.52, 824.22L218.93, 823.22L221.41, 822.51L223.94, 822.08L226.5, 821.94L229.06, 822.08L231.59, 822.51L234.07, 823.22L236.48, 824.22L391.87, 899.05L394.15, 900.31L396.26, 901.81L398.17, 903.52L399.87, 905.43L401.35, 907.52L402.6, 909.76L403.59, 912.15L404.31, 914.65L442.69, 1082.8L443.13, 1085.37L443.27, 1087.95L443.12, 1090.51L442.69, 1093.04L441.98, 1095.5L441, 1097.87L439.76, 1100.13L438.25, 1102.26L330.72, 1237.1L328.98, 1239.04L327.05, 1240.76L324.96, 1242.24L322.71, 1243.48L320.35, 1244.46L317.88, 1245.18L315.34, 1245.61L312.73, 1245.76L140.26, 1245.76L137.66, 1245.61L135.12, 1245.18L132.65, 1244.46L130.29, 1243.48L128.05, 1242.24L125.95, 1240.76L124.02, 1239.04L122.28, 1237.1L14.75, 1102.26L13.24, 1100.13L11.99, 1097.87L11.02, 1095.5L10.31, 1093.04L9.88, 1090.51L9.73, 1087.95L9.87, 1085.37L10.31, 1082.8L48.69, 914.65L49.41, 912.15L50.4, 909.76L51.65, 907.52L53.13, 905.43L54.83, 903.52L56.74, 901.81L58.85, 900.31L61.13, 899.05L216.52, 824.22"/></svg>